<svg xmlns="http://www.w3.org/2000/svg" viewBox="0 0 600 600"><defs><style>.cls-1,.cls-2{fill:#fff;}.cls-1{stroke:#000;stroke-miterlimit:10;}</style></defs><title>trackerToPrint</title><g id="entireTrucker"><rect class="cls-1" width="600" height="600"/><path d="M60.17,59.72v479.5h479.5V59.72Zm360,360H179.67V179.22h240.5Z"/></g><g id="apd_large"><path d="M341.25,271.89a68.91,68.91,0,0,0-3.07,137.76v.08h72v-69a69,69,0,0,0-68.92-68.84"/><path class="cls-2" d="M326.65,354.91H333v25.15h-6.31v-2.66a12.42,12.42,0,0,1-3.71,2.53,10.4,10.4,0,0,1-4,.77,11.2,11.2,0,0,1-8.43-3.78,13.19,13.19,0,0,1-3.56-9.4,13.51,13.51,0,0,1,3.44-9.55,11,11,0,0,1,8.36-3.72,10.59,10.59,0,0,1,4.25.86,11.55,11.55,0,0,1,3.67,2.56ZM320,360.09a6.38,6.38,0,0,0-4.86,2.07,7.46,7.46,0,0,0-1.93,5.31,7.54,7.54,0,0,0,2,5.37,6.39,6.39,0,0,0,4.85,2.1,6.49,6.49,0,0,0,4.93-2.07,7.58,7.58,0,0,0,2-5.42,7.35,7.35,0,0,0-2-5.32,6.58,6.58,0,0,0-5-2"/><path class="cls-2" d="M343.24,354.91v2.77a11.82,11.82,0,0,1,3.7-2.56,10.63,10.63,0,0,1,4.25-.86,11,11,0,0,1,8.37,3.72,13.51,13.51,0,0,1,3.44,9.55,13.19,13.19,0,0,1-3.56,9.4,11.22,11.22,0,0,1-8.44,3.78,10.49,10.49,0,0,1-4-.77,12.33,12.33,0,0,1-3.72-2.53v11.86H337V354.91Zm6.63,5.18a6.58,6.58,0,0,0-4.95,2,7.34,7.34,0,0,0-2,5.32,7.56,7.56,0,0,0,2,5.42,6.52,6.52,0,0,0,4.95,2.07,6.42,6.42,0,0,0,4.87-2.1,7.53,7.53,0,0,0,2-5.37,7.44,7.44,0,0,0-1.94-5.31,6.44,6.44,0,0,0-4.9-2.07"/><path class="cls-2" d="M384.43,345.2h6.31v34.86h-6.31v-2.66a12.43,12.43,0,0,1-3.71,2.53,10.39,10.39,0,0,1-4,.77,11.2,11.2,0,0,1-8.43-3.78,13.2,13.2,0,0,1-3.56-9.4,13.52,13.52,0,0,1,3.44-9.55,11,11,0,0,1,8.36-3.72,10.62,10.62,0,0,1,4.25.86,11.58,11.58,0,0,1,3.67,2.56Zm-6.64,14.89a6.39,6.39,0,0,0-4.86,2.07,7.47,7.47,0,0,0-1.93,5.31,7.55,7.55,0,0,0,2,5.37,6.39,6.39,0,0,0,4.85,2.1,6.49,6.49,0,0,0,4.93-2.07,7.57,7.57,0,0,0,2-5.42,7.35,7.35,0,0,0-2-5.32,6.58,6.58,0,0,0-5-2"/></g></svg>